<svg width="136" height="32" viewBox="0 0 136 32" fill="none" xmlns="http://www.w3.org/2000/svg">
<path fill-rule="evenodd" clip-rule="evenodd" d="M13.4214 25.1535C11.174 24.6624 9.08081 23.7665 7.21663 22.547C7.21733 22.5457 7.21803 22.5443 7.21872 22.543C5.77135 25.3265 4.67932 27.8608 4.04264 29.8012C3.47432 31.5333 2.97372 33.4295 4.61499 30.4054C5.58904 28.6106 7.98534 26.0916 13.4214 25.1535Z" fill="#6160A2"/>
<path fill-rule="evenodd" clip-rule="evenodd" d="M7.2168 22.5465C7.94943 21.1373 8.77316 19.6642 9.67502 18.1719C11.7582 19.6059 14.2467 20.4781 16.9295 20.5744C16.6592 20.5707 16.3841 20.5567 16.104 20.5321C19.316 21.5328 21.0132 20.8711 22.2722 20.3804C22.4323 20.3179 22.5853 20.2583 22.7334 20.2052C19.8854 23.4418 18.0257 24.3932 13.5847 25.1255C13.53 25.1346 13.4756 25.1437 13.4216 25.1531C11.1742 24.6619 9.08099 23.766 7.2168 22.5465Z" fill="#90DF9B"/>
<path fill-rule="evenodd" clip-rule="evenodd" d="M9.6709 18.178C14.1467 10.7702 20.5479 2.88725 27.2868 0C28.0108 0.915404 28.8673 3.48578 28.3327 6.27776C27.4155 11.0674 23.602 13.9431 19.0804 13.8293C19.8152 14.2162 22.6204 15.2685 25.9351 13.7646C24.6085 17.9195 21.251 20.8625 16.3802 20.553C13.9054 20.3649 11.6121 19.5154 9.6709 18.178Z" fill="#8E8CEE"/>
<path d="M39.4597 15.9854H37.6665C37.1142 15.9854 36.6665 15.5377 36.6665 14.9854V14.1922C36.6665 13.6399 37.1142 13.1922 37.6665 13.1922H39.4597V11.1477C39.4597 8.94009 39.9684 7.24116 40.9858 6.05095C42.0225 4.86073 43.5102 4.26562 45.4491 4.26562C46.0058 4.26562 46.5721 4.32322 47.1481 4.4384C47.4459 4.48644 47.7198 4.54651 47.9695 4.6186C48.3837 4.73814 48.6093 5.15908 48.5559 5.5868L48.4566 6.38085C48.3766 7.02103 47.7184 7.41415 47.0844 7.29473C46.657 7.21422 46.2271 7.17397 45.7947 7.17397C44.7388 7.17397 43.971 7.51951 43.491 8.21061C43.0111 8.9017 42.7711 9.99593 42.7711 11.4933V13.1922H45.9753C46.5276 13.1922 46.9753 13.6399 46.9753 14.1922V14.9854C46.9753 15.5377 46.5276 15.9854 45.9753 15.9854H42.7711V26.7339C42.7711 27.2862 42.3234 27.7339 41.7711 27.7339H40.4597C39.9074 27.7339 39.4597 27.2862 39.4597 26.7339V15.9854Z" fill="#4C4C53"/>
<path d="M82.5656 15.9854H80.5133C79.961 15.9854 79.5133 15.5377 79.5133 14.9854V14.1922C79.5133 13.6399 79.961 13.1922 80.5133 13.1922H82.5656V7.25252C82.5656 6.70023 83.0133 6.25251 83.5656 6.25251H84.8771C85.4293 6.25251 85.8771 6.70023 85.8771 7.25252V13.1922H88.5917C89.1439 13.1922 89.5917 13.6399 89.5917 14.1922V14.9854C89.5917 15.5377 89.144 15.9854 88.5917 15.9854H85.8771V26.7339C85.8771 27.2862 85.4293 27.7339 84.8771 27.7339H83.5656C83.0133 27.7339 82.5656 27.2862 82.5656 26.7339V15.9854Z" fill="#4C4C53"/>
<path d="M91.1538 7.13733C91.1538 6.58505 91.6015 6.13733 92.1538 6.13733H93.4653C94.0176 6.13733 94.4653 6.58505 94.4653 7.13733V14.8912C94.8876 14.2001 95.4731 13.6721 96.2218 13.3074C96.9897 12.9235 97.8728 12.7315 98.871 12.7315C100.618 12.7315 101.952 13.269 102.874 14.344C103.814 15.3999 104.285 16.926 104.285 18.9225V26.7339C104.285 27.2862 103.837 27.7339 103.285 27.7339H101.973C101.421 27.7339 100.973 27.2862 100.973 26.7339V19.5272C100.973 18.2218 100.724 17.2524 100.224 16.6189C99.7445 15.9854 98.9958 15.6686 97.9783 15.6686C96.8649 15.6686 96.0011 16.0334 95.3868 16.7629C94.7725 17.4923 94.4653 18.5098 94.4653 19.8152V26.7339C94.4653 27.2862 94.0176 27.7339 93.4653 27.7339H92.1538C91.6015 27.7339 91.1538 27.2862 91.1538 26.7339V7.13733Z" fill="#4C4C53"/>
<path d="M122.596 14.1922C122.596 13.6399 123.044 13.1922 123.596 13.1922H124.775C125.323 13.1922 125.769 13.6328 125.775 14.1805L125.792 15.6398C126.195 14.776 126.752 14.1137 127.462 13.653C128.192 13.1922 129.027 12.9619 129.968 12.9619C130.217 12.9619 130.505 12.9907 130.832 13.0482C130.873 13.0556 130.914 13.0633 130.955 13.0714C131.387 13.1574 131.636 13.5787 131.591 14.0174L131.488 15.0346C131.419 15.706 130.707 16.1198 130.035 16.0608C129.899 16.0489 129.762 16.043 129.622 16.043C128.451 16.043 127.539 16.4749 126.887 17.3388C126.234 18.1834 125.907 19.3641 125.907 20.8806V26.7339C125.907 27.2862 125.46 27.7339 124.907 27.7339H123.596C123.044 27.7339 122.596 27.2862 122.596 26.7339V14.1922Z" fill="#4C4C53"/>
<path d="M120.663 20.3156C120.663 20.3511 120.663 20.3688 120.66 20.4091C120.622 20.8697 120.204 21.2879 119.744 21.3252C119.703 21.3284 119.667 21.3284 119.594 21.3284H109.117C109.318 22.4051 109.84 23.2629 110.681 23.9016C111.54 24.5221 112.6 24.8323 113.862 24.8323C114.89 24.8323 115.803 24.6161 116.6 24.1837C117.15 23.885 117.425 23.7356 117.574 23.706C117.878 23.6456 118.03 23.6731 118.294 23.8358C118.423 23.9154 118.57 24.0838 118.863 24.4207C119.08 24.6693 119.189 24.7937 119.252 24.9647C119.345 25.213 119.308 25.6026 119.171 25.8295C119.077 25.9858 118.982 26.0611 118.79 26.2118C118.315 26.5863 117.778 26.8929 117.18 27.1317C116.175 27.5332 115.041 27.734 113.779 27.734C112.171 27.734 110.754 27.4146 109.529 26.7759C108.304 26.1371 107.353 25.2521 106.677 24.1206C106.018 22.9709 105.689 21.6752 105.689 20.2335C105.689 18.81 106.009 17.5326 106.649 16.4011C107.307 15.2514 108.212 14.3572 109.364 13.7184C110.516 13.0797 111.814 12.7603 113.258 12.7603C114.684 12.7603 115.955 13.0797 117.07 13.7184C118.204 14.3389 119.082 15.224 119.703 16.3737C120.343 17.5052 120.663 18.8191 120.663 20.3156ZM113.258 15.4977C112.161 15.4977 111.229 15.8262 110.461 16.4832C109.712 17.1219 109.254 17.9797 109.09 19.0564H117.399C117.253 17.9979 116.805 17.1402 116.056 16.4832C115.306 15.8262 114.374 15.4977 113.258 15.4977Z" fill="#4C4C53"/>
<path d="M62.4961 20.3156C62.4961 20.3511 62.4961 20.3688 62.4929 20.4091C62.4556 20.8697 62.0374 21.2879 61.5768 21.3252C61.5365 21.3284 61.4999 21.3284 61.4267 21.3284H50.9505C51.1516 22.4051 51.6727 23.2629 52.5137 23.9016C53.373 24.5221 54.4334 24.8323 55.6949 24.8323C56.7233 24.8323 57.6359 24.6161 58.4327 24.1837C58.9831 23.885 59.2583 23.7356 59.4071 23.706C59.7109 23.6456 59.8635 23.6731 60.1271 23.8358C60.2562 23.9154 60.403 24.0838 60.6966 24.4207C60.9134 24.6693 61.0218 24.7937 61.0854 24.9647C61.1777 25.213 61.1413 25.6026 61.0045 25.8295C60.9103 25.9858 60.8147 26.0611 60.6234 26.2118C60.1481 26.5863 59.6114 26.8929 59.0133 27.1317C58.0077 27.5332 56.8742 27.734 55.6126 27.734C54.0038 27.734 52.5868 27.4146 51.3619 26.7759C50.1369 26.1371 49.1862 25.2521 48.5098 24.1206C47.8516 22.9709 47.5225 21.6752 47.5225 20.2335C47.5225 18.81 47.8424 17.5326 48.4823 16.4011C49.1405 15.2514 50.0455 14.3572 51.1973 13.7184C52.3492 13.0797 53.6472 12.7603 55.0916 12.7603C56.5176 12.7603 57.7883 13.0797 58.9036 13.7184C60.0371 14.3389 60.9147 15.224 61.5363 16.3737C62.1762 17.5052 62.4961 18.8191 62.4961 20.3156ZM55.0916 15.4977C53.9946 15.4977 53.0622 15.8262 52.2943 16.4832C51.5447 17.1219 51.0876 17.9797 50.9231 19.0564H59.2326C59.0864 17.9979 58.6385 17.1402 57.8889 16.4832C57.1393 15.8262 56.2068 15.4977 55.0916 15.4977Z" fill="#4C4C53"/>
<path d="M70.8466 27.734C72.7009 27.734 74.3915 27.0329 75.6677 25.8814L75.7034 26.774C75.7248 27.3103 76.1658 27.734 76.7026 27.734H77.6213C78.1736 27.734 78.6213 27.2863 78.6213 26.734V14.3363C78.6213 13.784 78.1736 13.3363 77.6213 13.3363H76.7026C76.1658 13.3363 75.7248 13.76 75.7034 14.2963L75.6677 15.1889C74.3915 14.0373 72.7009 13.3363 70.8466 13.3363C66.8708 13.3363 63.6478 16.5593 63.6478 20.5351C63.6478 24.511 66.8708 27.734 70.8466 27.734ZM70.8466 24.9652C68.4 24.9652 66.4166 22.9818 66.4166 20.5351C66.4166 18.0885 68.4 16.1051 70.8466 16.1051C73.2933 16.1051 75.2767 18.0885 75.2767 20.5351C75.2767 22.9818 73.2933 24.9652 70.8466 24.9652Z" fill="#4C4C53"/>
</svg>
